<svg width="16" height="16" viewBox="0 0 16 16" class="flex-none" style="shape-rendering: geometricprecision;"><path fill-rule="nonzero" fill="currentColor" d="M9.5 1.5C9.36739 1.5 9.24021 1.55268 9.14645 1.64645C9.05268 1.74021 9 1.86739 9 2V5.5C9.00001 5.6326 9.0527 5.75977 9.14646 5.85354C9.24023 5.9473 9.3674 5.99999 9.5 6H13C13.1326 6 13.2598 5.94732 13.3536 5.85355C13.4473 5.75979 13.5 5.63261 13.5 5.5C13.5 5.36739 13.4473 5.24021 13.3536 5.14645C13.2598 5.05268 13.1326 5 13 5H10V2C10 1.86739 9.94732 1.74021 9.85355 1.64645C9.75979 1.55268 9.63261 1.5 9.5 1.5Z M3.5 1.5C2.95364 1.5 2.5 1.95364 2.5 2.5V13.5C2.50007 14.0463 2.95357 14.4999 3.49988 14.5C3.49984 14.5 3.49992 14.5 3.49988 14.5H12.5C13.0464 14.5 13.5 14.0464 13.5 13.5V5.5C13.5 5.36739 13.4473 5.24021 13.3536 5.14645L9.85355 1.64645C9.75979 1.55268 9.63261 1.5 9.5 1.5H3.5ZM3.5 2.5H9.29285L12.5 5.70715V13.5H3.50012L3.5 2.5Z"></path></svg>