<svg width="16" height="16" viewBox="0 0 16 16" class="flex-none" style="shape-rendering: geometricprecision;"><path fill-rule="nonzero" fill="currentColor" d="M2.91503 1.85839C2.62311 1.84273 2.33987 1.95711 2.14843 2.14855C1.89317 2.40381 1.77501 2.8222 1.9193 3.2069L5.55688 12.9069C5.55712 12.9075 5.55736 12.9082 5.55761 12.9088C5.71341 13.3189 6.11874 13.5564 6.49926 13.5538C6.87978 13.5513 7.28193 13.3085 7.43224 12.8964C7.4322 12.8965 7.43228 12.8962 7.43224 12.8964L8.70031 9.40757L12.6465 13.3536C12.7402 13.4474 12.8674 13.5 13 13.5C13.1326 13.5 13.2597 13.4474 13.3535 13.3536C13.4473 13.2598 13.4999 13.1327 13.4999 13.0001C13.4999 12.8675 13.4473 12.7403 13.3535 12.6466L9.40746 8.70042L12.8957 7.43247C13.3084 7.28247 13.5515 6.87997 13.5541 6.49924C13.5566 6.11852 13.3189 5.71297 12.9083 5.55747C12.9078 5.55727 12.9073 5.55706 12.9067 5.55686L3.20678 1.91942C3.1106 1.88335 3.01234 1.86361 2.91503 1.85839ZM2.8557 2.8557L12.5541 6.49267L8.54784 7.94884C8.54723 7.94909 8.54662 7.94933 8.54601 7.94957C8.26964 8.05128 8.05116 8.26976 7.94945 8.54613C7.94921 8.54674 7.94896 8.54735 7.94872 8.54796L6.49279 12.5537C6.4931 12.5527 6.49235 12.5548 6.49279 12.5537C6.49283 12.5536 6.49275 12.5538 6.49279 12.5537C6.49235 12.555 6.49291 12.555 6.49266 12.5559C6.49273 12.5555 6.49254 12.5564 6.49266 12.5559C6.49601 12.5582 6.49135 12.5633 6.49266 12.5559C6.49228 12.5548 6.49336 12.5553 6.49279 12.5537L2.8557 2.8557Z"></path></svg>