<svg width="16" height="16" viewBox="0 0 16 16" class="flex-none" style="shape-rendering: geometricprecision;"><path fill-rule="nonzero" fill="currentColor" d="M10.7617 6.00012C10.6292 5.99702 10.5008 6.04668 10.4049 6.13818L7.08154 9.30872L5.59546 7.88855C5.49959 7.79693 5.37126 7.74715 5.23869 7.75014C5.10612 7.75314 4.98017 7.80868 4.88855 7.90454C4.79693 8.00041 4.74715 8.12874 4.75014 8.26131C4.75314 8.39388 4.80868 8.51983 4.90454 8.61145L6.73584 10.3615C6.82881 10.4503 6.95244 10.4999 7.08104 10.5C7.20964 10.5 7.33332 10.4506 7.42639 10.3618L11.0951 6.86182C11.1426 6.81651 11.1807 6.76227 11.2073 6.70222C11.2338 6.64217 11.2483 6.57748 11.2499 6.51183C11.2514 6.44619 11.24 6.38089 11.2163 6.31965C11.1927 6.25841 11.1571 6.20243 11.1118 6.15492C11.0665 6.10739 11.0122 6.06925 10.9522 6.04269C10.8921 6.01614 10.8274 6.00166 10.7617 6.00012Z M3 2C2.45364 2 2 2.45364 2 3V13C2 13.5464 2.45364 14 3 14H13C13.5464 14 14 13.5464 14 13V3C14 2.45364 13.5464 2 13 2H3ZM3 3H13V13H3V3Z"></path></svg>