<svg width="16" height="16" viewBox="0 0 16 16" class="flex-none" style="shape-rendering: geometricprecision;"><path fill-rule="nonzero" fill="currentColor" d="M6.75 2C4.40279 2 2.5 3.90279 2.5 6.25C2.5 7.78227 3.31088 9.12515 4.52694 9.87293C4.24321 9.96591 3.96461 10.076 3.69272 10.2028C2.70011 10.6656 1.82093 11.3403 1.11696 12.1793C0.939472 12.3909 0.967077 12.7063 1.17862 12.8837C1.39017 13.0612 1.70554 13.0336 1.88304 12.8221C2.49314 12.0949 3.2551 11.5102 4.11536 11.1091C4.97562 10.7079 5.9133 10.5 6.8625 10.5C7.8117 10.5 8.74938 10.7079 9.60964 11.1091C9.66548 11.1351 9.7209 11.1619 9.77589 11.1895C10.0227 11.3133 10.3232 11.2135 10.447 10.9666C10.5707 10.7198 10.471 10.4193 10.2241 10.2956C10.1607 10.2637 10.0967 10.2328 10.0323 10.2028C9.7127 10.0537 9.38385 9.92781 9.04829 9.82558C10.2224 9.0693 11 7.75045 11 6.25C11 3.90279 9.09721 2 6.75 2ZM3.5 6.25C3.5 4.45507 4.95507 3 6.75 3C8.54493 3 10 4.45507 10 6.25C10 8.04493 8.54493 9.5 6.75 9.5C4.95507 9.5 3.5 8.04493 3.5 6.25Z M14.5177 9.0499C14.7208 9.14811 14.8329 9.37006 14.7915 9.59175L14.4667 11.3317L15.6864 11.8218C15.8366 11.8821 15.9483 12.0114 15.9861 12.1688C16.024 12.3261 15.9833 12.4921 15.877 12.6141L13.077 15.8284C12.9289 15.9985 12.6853 16.0483 12.4823 15.9501C12.2792 15.8519 12.1671 15.6299 12.2085 15.4083L12.5333 13.6683L11.3136 13.1782C11.1634 13.1179 11.0517 12.9886 11.0139 12.8312C10.976 12.6739 11.0167 12.5079 11.123 12.3859L13.923 9.17158C14.0711 9.00153 14.3147 8.95169 14.5177 9.0499ZM12.3389 12.5125L13.2864 12.8932C13.5075 12.982 13.6352 13.2146 13.5915 13.4489L13.5282 13.788L14.6611 12.4875L13.7136 12.1068C13.4925 12.018 13.3648 11.7854 13.4085 11.5511L13.4718 11.212L12.3389 12.5125Z"></path></svg>