<svg width="16" height="16" viewBox="0 0 16 16" class="flex-none" style="shape-rendering: geometricprecision;"><path fill-rule="evenodd" fill="currentColor" d="M11.5 1.5C11.5 1.22386 11.2761 1 11 1C10.7239 1 10.5 1.22386 10.5 1.5V2H5.5V1.5C5.5 1.22386 5.27614 1 5 1C4.72386 1 4.5 1.22386 4.5 1.5V2H3C2.44772 2 2 2.44772 2 3V13C2 13.5523 2.44772 14 3 14H9.5C9.77614 14 10 13.7761 10 13.5C10 13.2239 9.77614 13 9.5 13H3V6H13V7.5C13 7.77614 13.2239 8 13.5 8C13.7761 8 14 7.77614 14 7.5V3C14 2.44772 13.5523 2 13 2H11.5V1.5ZM13 5V3H11.5V3.5C11.5 3.77614 11.2761 4 11 4C10.7239 4 10.5 3.77614 10.5 3.5V3H5.5V3.5C5.5 3.77614 5.27614 4 5 4C4.72386 4 4.5 3.77614 4.5 3.5V3H3V5H13Z M14.5177 9.0499C14.7208 9.14811 14.8329 9.37006 14.7915 9.59175L14.4667 11.3317L15.6864 11.8218C15.8366 11.8821 15.9483 12.0114 15.9861 12.1688C16.024 12.3261 15.9833 12.4921 15.877 12.6141L13.077 15.8284C12.9289 15.9985 12.6853 16.0483 12.4823 15.9501C12.2792 15.8519 12.1671 15.6299 12.2085 15.4083L12.5333 13.6683L11.3136 13.1782C11.1634 13.1179 11.0517 12.9886 11.0139 12.8312C10.976 12.6739 11.0167 12.5079 11.123 12.3859L13.923 9.17158C14.0711 9.00153 14.3147 8.95169 14.5177 9.0499ZM12.3389 12.5125L13.2864 12.8932C13.5075 12.982 13.6352 13.2146 13.5915 13.4489L13.5282 13.788L14.6611 12.4875L13.7136 12.1068C13.4925 12.018 13.3648 11.7854 13.4085 11.5511L13.4718 11.212L12.3389 12.5125Z"></path></svg>