<svg width="16" height="16" viewBox="0 0 16 16" class="flex-none" style="shape-rendering: geometricprecision;"><path fill-rule="nonzero" fill="currentColor" d="M5.75 7.5C5.61739 7.5 5.49021 7.55268 5.39645 7.64645C5.30268 7.74021 5.25 7.86739 5.25 8C5.25 8.13261 5.30268 8.25979 5.39645 8.35355C5.49021 8.44732 5.61739 8.5 5.75 8.5H6.45972L6.10962 8.93762C6.05075 9.01123 6.01388 9.09999 6.00326 9.19365C5.99265 9.28731 6.00872 9.38206 6.04963 9.46698C6.09054 9.55189 6.15462 9.62352 6.23448 9.6736C6.31433 9.72367 6.40672 9.75016 6.50098 9.75C6.87529 9.74929 7.10696 10.0953 6.96375 10.4412C6.96379 10.4411 6.9637 10.4412 6.96375 10.4412C6.89965 10.5961 6.76358 10.7079 6.59912 10.7405C6.59916 10.7405 6.59908 10.7405 6.59912 10.7405C6.43467 10.7731 6.26622 10.7219 6.14782 10.6032C6.10146 10.5567 6.04638 10.5197 5.98575 10.4945C5.92512 10.4693 5.86011 10.4563 5.79445 10.4562C5.72878 10.4561 5.66374 10.4689 5.60304 10.494C5.54234 10.519 5.48716 10.5558 5.44067 10.6022C5.39417 10.6485 5.35726 10.7036 5.33204 10.7642C5.30683 10.8249 5.2938 10.8899 5.29371 10.9556C5.29362 11.0212 5.30646 11.0863 5.33151 11.147C5.35656 11.2077 5.39332 11.2628 5.43969 11.3093C5.79332 11.6639 6.30238 11.8188 6.79357 11.7213C7.28484 11.6239 7.6962 11.2865 7.88769 10.8237C8.17053 10.1406 7.88369 9.40065 7.32678 9.01697L7.89038 8.31238C7.9492 8.23883 7.98605 8.15017 7.9967 8.0566C8.00735 7.96303 7.99136 7.86835 7.95057 7.78347C7.90979 7.69858 7.84585 7.62694 7.76614 7.57679C7.68643 7.52665 7.59418 7.50003 7.5 7.5H5.75Z M10.0472 7.50232C9.92336 7.49052 9.79953 7.52534 9.69995 7.59998L8.69995 8.34997C8.64741 8.38937 8.60315 8.43874 8.56969 8.49524C8.53624 8.55175 8.51424 8.61429 8.50495 8.6793C8.49567 8.74431 8.49928 8.81051 8.51559 8.87413C8.53189 8.93774 8.56057 8.99752 8.59998 9.05005C8.63937 9.10259 8.68874 9.14685 8.74524 9.1803C8.80175 9.21376 8.86429 9.23576 8.9293 9.24505C8.99431 9.25433 9.06052 9.25072 9.12413 9.23441C9.18774 9.21811 9.24752 9.18943 9.30005 9.15002L9.5 9V11.25C9.5 11.3826 9.55268 11.5098 9.64645 11.6036C9.74021 11.6973 9.86739 11.75 10 11.75C10.1326 11.75 10.2598 11.6973 10.3536 11.6036C10.4473 11.5098 10.5 11.3826 10.5 11.25V8C10.5 7.87559 10.4536 7.75566 10.3698 7.66363C10.2861 7.5716 10.1711 7.51409 10.0472 7.50232Z M5 1C4.86739 1 4.74021 1.05268 4.64645 1.14645C4.55268 1.24021 4.5 1.36739 4.5 1.5V2H3C2.45364 2 2 2.45364 2 3V13C2 13.5464 2.45364 14 3 14H13C13.5464 14 14 13.5464 14 13V3C14 2.45364 13.5464 2 13 2H11.5V1.5C11.5 1.36739 11.4473 1.24021 11.3536 1.14645C11.2598 1.05268 11.1326 1 11 1C10.8674 1 10.7402 1.05268 10.6464 1.14645C10.5527 1.24021 10.5 1.36739 10.5 1.5V2H5.5V1.5C5.5 1.36739 5.44732 1.24021 5.35355 1.14645C5.25979 1.05268 5.13261 1 5 1ZM3 3H4.5V3.5C4.5 3.63261 4.55268 3.75979 4.64645 3.85355C4.74021 3.94732 4.86739 4 5 4C5.13261 4 5.25979 3.94732 5.35355 3.85355C5.44732 3.75979 5.5 3.63261 5.5 3.5V3H10.5V3.5C10.5 3.63261 10.5527 3.75979 10.6464 3.85355C10.7402 3.94732 10.8674 4 11 4C11.1326 4 11.2598 3.94732 11.3536 3.85355C11.4473 3.75979 11.5 3.63261 11.5 3.5V3H13V5H3V3ZM3 6H13V13H3V6Z"></path></svg>