<svg width="16" height="16" viewBox="0 0 16 16" class="flex-none" style="shape-rendering: geometricprecision;"><path fill-rule="nonzero" fill="currentColor" d="M6.93749 5.81154C6.07524 5.8115 5.24801 6.15511 4.63952 6.76601L2.87206 8.52712C2.86639 8.53281 2.86085 8.53863 2.85546 8.54458C2.29141 9.16344 1.98729 9.97626 2.0067 10.8134C2.03651 12.0876 2.80961 13.23 3.98144 13.7313C5.15327 14.2327 6.51333 14.003 7.45556 13.1447C7.4613 13.1395 7.46691 13.1341 7.4724 13.1287L8.70983 11.8911C8.75627 11.8447 8.7931 11.7896 8.81823 11.7289C8.84336 11.6683 8.8563 11.6032 8.8563 11.5376C8.8563 11.4719 8.84336 11.4069 8.81823 11.3462C8.7931 11.2855 8.75627 11.2304 8.70983 11.184C8.61606 11.0902 8.4889 11.0376 8.35631 11.0376C8.22372 11.0376 8.09656 11.0902 8.0028 11.184L6.77868 12.4081C6.12438 13.0019 5.18732 13.1596 4.37475 12.8119C3.56087 12.4637 3.02721 11.6752 3.00646 10.7902C2.99307 10.2112 3.20288 9.64994 3.59215 9.22133L5.34667 7.47304C5.34712 7.47259 5.34757 7.47215 5.34801 7.4717C5.76912 7.04892 6.34077 6.81151 6.93749 6.81155C7.53422 6.81155 8.10583 7.04894 8.52697 7.4717C8.57331 7.51823 8.62836 7.55517 8.68898 7.58041C8.7496 7.60566 8.8146 7.61872 8.88027 7.61884C8.94593 7.61897 9.01098 7.60616 9.0717 7.58114C9.13241 7.55612 9.1876 7.51939 9.23412 7.47305C9.32804 7.37946 9.38095 7.2524 9.3812 7.11981C9.38145 6.98722 9.32903 6.85996 9.23547 6.76601C8.62695 6.15516 7.79971 5.81155 6.93749 5.81154Z M10.8133 2.00905C10.0028 1.99035 9.18543 2.27105 8.54442 2.85549C8.53873 2.86069 8.53315 2.86602 8.5277 2.87148L7.29015 4.10891C7.24372 4.15534 7.20688 4.21046 7.18175 4.27113C7.15662 4.33179 7.14368 4.39682 7.14368 4.46248C7.14368 4.52815 7.15662 4.59317 7.18175 4.65384C7.20688 4.71451 7.24372 4.76963 7.29015 4.81606C7.33658 4.8625 7.3917 4.89933 7.45237 4.92446C7.51304 4.9496 7.57806 4.96253 7.64373 4.96253C7.70939 4.96253 7.77442 4.9496 7.83508 4.92446C7.89575 4.89933 7.95087 4.8625 7.9973 4.81606L9.22155 3.59194C10.1163 2.77921 11.4786 2.81129 12.3337 3.6664C13.1889 4.5216 13.2208 5.88409 12.4078 6.77883L10.6533 8.52712C10.6529 8.52757 10.6524 8.52802 10.652 8.52846C10.0089 9.17407 9.04352 9.36659 8.20202 9.01699C8.20206 9.01699 8.20197 9.01699 8.20202 9.01699C7.92924 8.90373 7.68135 8.7377 7.47289 8.52846C7.3793 8.43454 7.25224 8.38164 7.11965 8.38138C6.98706 8.38113 6.8598 8.43355 6.76586 8.52712C6.71933 8.57346 6.68239 8.62851 6.65714 8.68913C6.6319 8.74975 6.61884 8.81475 6.61871 8.88042C6.61859 8.94609 6.6314 9.01113 6.65642 9.07185C6.68143 9.13256 6.71816 9.18776 6.76451 9.23427C7.06587 9.53674 7.42403 9.77671 7.81835 9.94045C9.03169 10.4445 10.4332 10.165 11.3605 9.23415L13.1279 7.47304C13.1336 7.4674 13.1391 7.46162 13.1445 7.45571C14.3134 6.17372 14.2675 4.18601 13.0408 2.95925C12.4274 2.34587 11.6239 2.02776 10.8133 2.00905Z"></path></svg>