<svg width="16" height="16" viewBox="0 0 16 16" class="flex-none" style="shape-rendering: geometricprecision;"><path fill-rule="nonzero" fill="currentColor" d="M4.24999 3C4.43937 3 4.6125 3.107 4.6972 3.27639L6.4472 6.77639C6.5707 7.02338 6.47058 7.32372 6.22359 7.44721C5.9766 7.57071 5.67627 7.4706 5.55277 7.22361L5.17327 6.4646H3.3267L2.9472 7.22361C2.82371 7.4706 2.52337 7.57071 2.27638 7.44721C2.02939 7.32372 1.92928 7.02338 2.05277 6.77639L3.80277 3.27639C3.88747 3.107 4.0606 3 4.24999 3ZM3.8267 5.4646H4.67327L4.24999 4.61803L3.8267 5.4646Z M7.5 3.75C7.22386 3.75 7 3.97386 7 4.25C7 4.52614 7.22386 4.75 7.5 4.75H13.5C13.7761 4.75 14 4.52614 14 4.25C14 3.97386 13.7761 3.75 13.5 3.75H7.5Z M8 6.75C8 6.47386 8.22386 6.25 8.5 6.25H11.5C11.7761 6.25 12 6.47386 12 6.75C12 7.02614 11.7761 7.25 11.5 7.25H8.5C8.22386 7.25 8 7.02614 8 6.75Z M2 9.25C2 8.97386 2.22386 8.75 2.5 8.75H13.5C13.7761 8.75 14 8.97386 14 9.25C14 9.52614 13.7761 9.75 13.5 9.75H2.5C2.22386 9.75 2 9.52614 2 9.25Z M2 11.75C2 11.4739 2.22386 11.25 2.5 11.25H11.5C11.7761 11.25 12 11.4739 12 11.75C12 12.0261 11.7761 12.25 11.5 12.25H2.5C2.22386 12.25 2 12.0261 2 11.75Z"></path></svg>