<svg width="16" height="16" viewBox="0 0 16 16" class="flex-none" style="shape-rendering: geometricprecision;"><path fill-rule="nonzero" fill="currentColor" d="M10.6096 3.18767C10.7821 2.97204 11.0967 2.93708 11.3124 3.10958L12.25 3.85971L13.1877 3.10958C13.4033 2.93708 13.7179 2.97204 13.8905 3.18767C14.063 3.4033 14.028 3.71795 13.8124 3.89045L12.5624 4.89045C12.3798 5.03654 12.1203 5.03654 11.9377 4.89045L10.6877 3.89045C10.472 3.71795 10.4371 3.4033 10.6096 3.18767Z M2 4C2 3.72386 2.22386 3.5 2.5 3.5H8C8.27614 3.5 8.5 3.72386 8.5 4C8.5 4.27614 8.27614 4.5 8 4.5H2.5C2.22386 4.5 2 4.27614 2 4Z M2.5 7.5C2.22386 7.5 2 7.72386 2 8C2 8.27614 2.22386 8.5 2.5 8.5H8C8.27614 8.5 8.5 8.27614 8.5 8C8.5 7.72386 8.27614 7.5 8 7.5H2.5Z M2.5 11.5C2.22386 11.5 2 11.7239 2 12C2 12.2761 2.22386 12.5 2.5 12.5H8C8.27614 12.5 8.5 12.2761 8.5 12C8.5 11.7239 8.27614 11.5 8 11.5H2.5Z M10.6096 7.18767C10.7821 6.97204 11.0967 6.93708 11.3124 7.10958L12.25 7.85971L13.1877 7.10958C13.4033 6.93708 13.7179 6.97204 13.8905 7.18767C14.063 7.4033 14.028 7.71795 13.8124 7.89045L12.5624 8.89045C12.3798 9.03654 12.1203 9.03654 11.9377 8.89045L10.6877 7.89045C10.472 7.71795 10.4371 7.4033 10.6096 7.18767Z M10.6096 11.1877C10.7821 10.972 11.0967 10.9371 11.3124 11.1096L12.25 11.8597L13.1877 11.1096C13.4033 10.9371 13.7179 10.972 13.8905 11.1877C14.063 11.4033 14.028 11.7179 13.8124 11.8905L12.5624 12.8905C12.3798 13.0365 12.1203 13.0365 11.9377 12.8905L10.6877 11.8905C10.472 11.7179 10.4371 11.4033 10.6096 11.1877Z"></path></svg>