<svg width="16" height="16" viewBox="0 0 16 16" class="flex-none" style="shape-rendering: geometricprecision;"><path fill-rule="nonzero" fill="currentColor" d="M5.77625 6.75073C5.64385 6.74375 5.5141 6.78963 5.41553 6.8783C5.36671 6.92222 5.32702 6.97532 5.29873 7.03458C5.27044 7.09384 5.2541 7.1581 5.25064 7.22367C5.24719 7.28925 5.25668 7.35486 5.27858 7.41677C5.30048 7.47868 5.33437 7.53566 5.3783 7.58447L7.6283 10.0845C7.67519 10.1366 7.73251 10.1782 7.79655 10.2068C7.86058 10.2353 7.9299 10.25 8 10.25C8.0701 10.25 8.13942 10.2353 8.20345 10.2068C8.26749 10.1782 8.32481 10.1366 8.3717 10.0845L10.6217 7.58447C10.6656 7.53566 10.6995 7.47868 10.7214 7.41677C10.7433 7.35486 10.7528 7.28925 10.7494 7.22367C10.7459 7.1581 10.7296 7.09384 10.7013 7.03458C10.673 6.97532 10.6333 6.92222 10.5845 6.8783C10.5357 6.83437 10.4787 6.80048 10.4168 6.77858C10.3549 6.75668 10.2892 6.74719 10.2237 6.75064C10.1581 6.7541 10.0938 6.77044 10.0346 6.79873C9.97532 6.82702 9.92222 6.86671 9.8783 6.91553L8 9.00256L6.1217 6.91553C6.07777 6.86672 6.02464 6.82704 5.96537 6.79877C5.90609 6.77049 5.84183 6.75417 5.77625 6.75073Z M8 1.5C4.41604 1.5 1.5 4.41604 1.5 8C1.5 11.5839 4.41603 14.5 8 14.5C11.5839 14.5 14.5 11.5839 14.5 8C14.5 4.41603 11.5839 1.5 8 1.5ZM8 2.5C11.0435 2.5 13.5 4.95647 13.5 8C13.5 11.0435 11.0435 13.5 8 13.5C4.95647 13.5 2.5 11.0435 2.5 8C2.5 4.95647 4.95647 2.5 8 2.5Z"></path></svg>